<svg width="180" height="180" viewBox="0 0 180 180" fill="none" xmlns="http://www.w3.org/2000/svg">
<mask id="path-1-inside-1_2_12" fill="white">
<path d="M0 30C0 13.4315 13.4315 0 30 0H150C166.569 0 180 13.4315 180 30V150C180 166.569 166.569 180 150 180H30C13.4315 180 0 166.569 0 150V30Z"/>
</mask>
<path d="M0 30C0 13.4315 13.4315 0 30 0H150C166.569 0 180 13.4315 180 30V150C180 166.569 166.569 180 150 180H30C13.4315 180 0 166.569 0 150V30Z" fill="#7C3AED"/>
<path d="M0 30C0 2.38576 22.3858 -20 50 -20H130C157.614 -20 180 2.38576 180 30C180 24.4772 166.569 20 150 20H30C13.4315 20 0 24.4772 0 30ZM180 180H0H180ZM0 180V0V180ZM180 0V180V0Z" fill="#FCD34D" mask="url(#path-1-inside-1_2_12)"/>
<path d="M56.4746 65H77.8809V119.844C77.8548 125.052 76.5397 129.635 73.9356 133.594C71.3574 137.526 67.7897 140.599 63.2324 142.813C58.7012 145 53.4798 146.094 47.5684 146.094C42.4382 146.094 37.7507 145.208 33.5059 143.437C29.2611 141.641 25.8757 138.828 23.3496 135C20.8236 131.146 19.5736 126.146 19.5996 120H41.3184C41.3965 122.005 41.735 123.698 42.334 125.078C42.959 126.458 43.8184 127.5 44.9121 128.203C46.0319 128.88 47.3861 129.219 48.9746 129.219C50.5892 129.219 51.9434 128.867 53.0371 128.164C54.1569 127.461 55.0033 126.419 55.5762 125.039C56.1491 123.633 56.4486 121.901 56.4746 119.844V65ZM88.1738 145V65H109.893V97.3437H110.986L135.049 65H160.361L133.33 100.625L160.986 145H135.049L117.08 115L109.893 124.375V145H88.1738Z" fill="#FCD34D"/>
</svg>
