<svg width="145" height="145" viewBox="0 0 145 145" fill="none" xmlns="http://www.w3.org/2000/svg">
  <path
    d="M103.633 86.9713C104.208 82.2252 104.639 77.4791 104.639 72.5893C104.639 67.6994 104.208 62.9533 103.633 58.2073H127.938C129.089 62.8095 129.808 67.6275 129.808 72.5893C129.808 77.551 129.089 82.369 127.938 86.9713M90.9045 126.953C95.2191 118.971 98.5269 110.342 100.828 101.353H122.041C115.138 113.218 104.136 122.423 90.9045 126.953ZM89.1067 86.9713H55.4529C54.7338 82.2252 54.3023 77.4791 54.3023 72.5893C54.3023 67.6994 54.7338 62.8814 55.4529 58.2073H89.1067C89.7539 62.8814 90.2573 67.6994 90.2573 72.5893C90.2573 77.4791 89.7539 82.2252 89.1067 86.9713ZM72.2798 129.83C66.3113 121.2 61.4933 111.636 58.545 101.353H86.0146C83.0663 111.636 78.2483 121.2 72.2798 129.83ZM43.5158 43.8253H22.5181C29.3496 31.8882 40.4237 22.6838 53.5832 18.2253C49.2686 26.2074 46.0327 34.8365 43.5158 43.8253ZM22.5181 101.353H43.5158C46.0327 110.342 49.2686 118.971 53.5832 126.953C40.4237 122.423 29.3496 113.218 22.5181 101.353ZM16.6215 86.9713C15.471 82.369 14.7519 77.551 14.7519 72.5893C14.7519 67.6275 15.471 62.8095 16.6215 58.2073H40.9271C40.3518 62.9533 39.9203 67.6994 39.9203 72.5893C39.9203 77.4791 40.3518 82.2252 40.9271 86.9713M72.2798 15.277C78.2483 23.9062 83.0663 33.5422 86.0146 43.8253H58.545C61.4933 33.5422 66.3113 23.9062 72.2798 15.277ZM122.041 43.8253H100.828C98.5269 34.8365 95.2191 26.2074 90.9045 18.2253C104.136 22.7557 115.138 31.8882 122.041 43.8253ZM72.2798 0.679321C32.5136 0.679321 0.369873 33.0388 0.369873 72.5893C0.369873 91.661 7.94608 109.952 21.4318 123.437C34.9175 136.923 53.2081 144.499 72.2798 144.499C91.3515 144.499 109.642 136.923 123.128 123.437C136.614 109.952 144.19 91.661 144.19 72.5893C144.19 63.1459 142.33 53.795 138.716 45.0705C135.102 36.346 129.805 28.4187 123.128 21.7413C116.45 15.0638 108.523 9.76695 99.7986 6.15314C91.074 2.53933 81.7232 0.679321 72.2798 0.679321Z"
    fill="#1B1F23" />
</svg>
