<svg width="101" height="76" viewBox="0 0 101 76" fill="none" xmlns="http://www.w3.org/2000/svg">
  <path
    d="M99.0423 25.0021C99.8113 24.3909 100.955 24.9627 100.955 25.9288V66.2516C100.955 71.4768 96.7156 75.7162 91.4904 75.7162H9.46452C4.23932 75.7162 0 71.4768 0 66.2516V25.9486C0 24.9627 1.12391 24.4106 1.91262 25.0218C6.3294 28.4527 12.1856 32.8103 32.2977 47.4212C36.4581 50.4577 43.4776 56.8463 50.4774 56.8068C57.5167 56.866 64.6742 50.3394 68.6769 47.4212C88.789 32.8103 94.6255 28.433 99.0423 25.0021ZM50.4774 50.4774C55.052 50.5563 61.6377 44.7199 64.9503 42.3143C91.1157 23.3261 93.1072 21.6698 99.1409 16.9375C100.284 16.0502 100.955 14.67 100.955 13.2109V9.46452C100.955 4.23932 96.7156 0 91.4904 0H9.46452C4.23932 0 0 4.23932 0 9.46452V13.2109C0 14.67 0.670403 16.0305 1.81403 16.9375C7.84767 21.6501 9.83916 23.3261 36.0046 42.3143C39.3172 44.7199 45.9029 50.5563 50.4774 50.4774Z"
    fill="#1B1F23" />
</svg>
