<svg width="94" height="94" viewBox="0 0 94 94" xmlns="http://www.w3.org/2000/svg">
  <path
    d="M86.9564 0.300171H7.76656C3.97952 0.300171 0.90625 3.30115 0.90625 6.99656V86.5284C0.90625 90.229 3.97952 93.2338 7.76656 93.2338H86.9564C90.746 93.2338 93.8399 90.229 93.8399 86.5284V6.99656C93.8399 3.30115 90.746 0.300171 86.9564 0.300171ZM28.4688 79.4926H14.6785V35.1438H28.4688V79.4926ZM21.5737 29.0799C17.1554 29.0799 13.584 25.4994 13.584 21.085C13.584 16.6771 17.1554 13.0966 21.5737 13.0966C25.9816 13.0966 29.5621 16.6771 29.5621 21.085C29.5621 25.4994 25.9816 29.0799 21.5737 29.0799ZM80.0935 79.4926H66.3251V57.9268C66.3251 52.7819 66.2244 46.1668 59.1602 46.1668C51.9862 46.1668 50.8929 51.7699 50.8929 57.5538V79.4939H37.1142V35.1438H50.3379V41.2H50.5264C52.367 37.715 56.8639 34.0377 63.5706 34.0377C77.5184 34.0377 80.0948 43.22 80.0948 55.1659L80.0935 79.4926Z"
    fill="#1B1F23"
  />
</svg>
